M48
; DRILL file KiCad 10.0.4 date 2026-07-08T16:37:10
; FORMAT={-:-/ absolute / metric / decimal}
; #@! TF.CreationDate,2026-07-08T16:37:10-04:00
; #@! TF.GenerationSoftware,Kicad,Pcbnew,10.0.4
; #@! TF.FileFunction,Plated,1,2,PTH
FMAT,2
METRIC
; #@! TA.AperFunction,Plated,PTH,ViaDrill
T1C0.300
; #@! TA.AperFunction,Plated,PTH,ComponentDrill
T2C0.660
; #@! TA.AperFunction,Plated,PTH,ComponentDrill
T3C0.750
; #@! TA.AperFunction,Plated,PTH,ComponentDrill
T4C0.787
; #@! TA.AperFunction,Plated,PTH,ComponentDrill
T5C0.800
; #@! TA.AperFunction,Plated,PTH,ComponentDrill
T6C1.000
; #@! TA.AperFunction,Plated,PTH,ComponentDrill
T7C1.067
; #@! TA.AperFunction,Plated,PTH,ComponentDrill
T8C1.200
; #@! TA.AperFunction,Plated,PTH,ComponentDrill
T9C1.300
; #@! TA.AperFunction,Plated,PTH,ComponentDrill
T10C1.850
%
G90
G05
T1
X56.5Y-85.8
X56.9Y-87.4
X60.8Y-84.8
X63.0Y-81.1
X65.3Y-58.9
X67.67Y-173.11
X68.8Y-88.1
X75.2Y-74.5
X76.3Y-79.1
X86.07Y-92.78
X86.08Y-88.36
X87.0Y-59.3
X97.63Y-173.1
X104.5Y-84.6
X108.9Y-84.6
X109.2Y-86.1
X112.063Y-58.175
X113.0Y-65.7
X119.2Y-63.8
X119.2Y-66.825
X119.4Y-102.5
X124.03Y-113.49
X126.3Y-67.8
X126.55Y-63.94
X126.68Y-115.26
X127.91Y-173.08
X129.66Y-90.83
X129.7Y-72.2
X132.0Y-88.6
X132.3Y-102.3
X143.1Y-71.2
X144.8Y-109.1
X145.6Y-130.4
X146.0Y-72.0
X146.3Y-106.2
X150.34Y-88.13
X150.34Y-90.69
X150.34Y-101.18
X150.36Y-113.28
X150.36Y-123.27
X150.8Y-140.15
X152.875Y-136.5
X152.88Y-115.07
X152.88Y-125.01
X155.9Y-117.5
X156.07Y-71.19
X157.8Y-108.5
X157.94Y-72.48
X158.01Y-130.42
X158.5Y-111.1
X165.11Y-61.48
X165.99Y-69.94
X167.0Y-131.3
X167.04Y-124.82
X167.05Y-118.59
X167.06Y-112.42
X171.17Y-139.47
X172.1Y-135.2
X172.1Y-142.8
X172.11Y-125.62
X175.6Y-151.2
X178.93Y-71.15
X184.74Y-107.9
X184.94Y-138.06
X186.69Y-140.52
X189.7Y-120.01
X189.71Y-107.15
X189.71Y-113.71
T3
X64.125Y-62.216
X64.625Y-66.451
X64.625Y-68.991
X65.395Y-60.946
X65.395Y-63.486
X65.895Y-67.721
X96.63Y-73.53
X97.2Y-66.8
X97.2Y-69.34
X97.9Y-72.26
X97.9Y-74.8
X98.47Y-68.07
X102.3Y-52.8
X107.3Y-52.8
X138.625Y-128.15
X142.7Y-77.6
X142.7Y-82.4
X143.625Y-128.15
X143.97Y-78.87
X143.97Y-83.67
X145.24Y-77.6
X145.24Y-82.4
X147.05Y-88.225
X147.05Y-93.225
X154.875Y-143.275
X154.875Y-148.275
X164.1Y-64.4
X164.1Y-69.4
T4
X77.08Y-60.4
X77.08Y-62.94
X77.08Y-65.48
X77.08Y-68.02
X77.08Y-70.56
X77.08Y-73.1
X77.08Y-75.64
X84.7Y-60.4
X84.7Y-62.94
X84.7Y-65.48
X84.7Y-68.02
X84.7Y-70.56
X84.7Y-73.1
X84.7Y-75.64
X174.68Y-109.16
X174.68Y-111.7
X174.68Y-114.24
X174.68Y-116.78
X174.68Y-119.32
X174.68Y-121.86
X174.68Y-124.4
X174.68Y-126.94
X182.3Y-109.16
X182.3Y-111.7
X182.3Y-114.24
X182.3Y-116.78
X182.3Y-119.32
X182.3Y-121.86
X182.3Y-124.4
X182.3Y-126.94
T5
X65.48Y-72.16
X65.48Y-74.7
X65.48Y-77.24
X65.48Y-79.78
X65.48Y-82.32
X65.48Y-84.86
X65.48Y-87.4
X68.9Y-60.69
X68.9Y-68.31
X73.1Y-72.16
X73.1Y-74.7
X73.1Y-77.24
X73.1Y-79.78
X73.1Y-82.32
X73.1Y-84.86
X73.1Y-87.4
X88.438Y-77.7
X96.058Y-77.7
X109.98Y-52.7
X114.0Y-78.28
X114.0Y-85.9
X114.0Y-88.15
X114.0Y-95.77
X115.485Y-59.38
X115.485Y-61.92
X115.485Y-64.46
X115.485Y-67.0
X115.485Y-69.54
X115.485Y-72.08
X115.485Y-74.62
X116.6Y-88.15
X116.6Y-95.77
X116.95Y-78.3
X116.95Y-85.92
X117.6Y-52.7
X120.75Y-78.3
X120.75Y-85.92
X122.03Y-93.41
X122.03Y-95.95
X122.03Y-98.49
X122.03Y-101.03
X122.03Y-103.57
X122.03Y-106.11
X122.03Y-108.65
X123.105Y-59.38
X123.105Y-61.92
X123.105Y-64.46
X123.105Y-67.0
X123.105Y-69.54
X123.105Y-72.08
X123.105Y-74.62
X126.425Y-78.825
X126.425Y-86.445
X129.475Y-78.825
X129.475Y-86.445
X129.65Y-93.41
X129.65Y-95.95
X129.65Y-98.49
X129.65Y-101.03
X129.65Y-103.57
X129.65Y-106.11
X129.65Y-108.65
X131.59Y-59.4
X132.205Y-63.56
X132.205Y-66.1
X132.205Y-68.64
X132.205Y-71.18
X132.205Y-73.72
X132.205Y-76.26
X132.205Y-78.8
X132.575Y-111.29
X132.575Y-118.91
X135.65Y-86.75
X135.65Y-94.37
X135.75Y-111.29
X135.75Y-118.91
X138.925Y-111.28
X138.925Y-118.9
X139.21Y-59.4
X139.825Y-63.56
X139.825Y-66.1
X139.825Y-68.64
X139.825Y-71.18
X139.825Y-73.72
X139.825Y-76.26
X139.825Y-78.8
X140.05Y-131.925
X140.05Y-139.545
X141.561Y-59.39
X141.8Y-88.225
X141.8Y-90.765
X141.8Y-93.305
X143.025Y-107.105
X143.025Y-114.725
X143.025Y-116.88
X143.025Y-124.5
X143.15Y-96.94
X143.15Y-104.56
X143.15Y-131.925
X143.15Y-139.545
X143.183Y-143.3
X143.193Y-146.0
X145.75Y-95.705
X145.75Y-103.325
X145.825Y-112.29
X145.825Y-119.91
X148.2Y-123.91
X148.2Y-126.45
X148.2Y-128.99
X148.2Y-131.53
X148.2Y-134.07
X148.2Y-136.61
X148.2Y-139.15
X148.23Y-99.91
X148.23Y-102.45
X148.23Y-104.99
X148.23Y-107.53
X148.23Y-110.07
X148.23Y-112.61
X148.23Y-115.15
X148.39Y-81.95
X148.45Y-63.57
X148.45Y-66.11
X148.45Y-68.65
X148.45Y-71.19
X148.45Y-73.73
X148.45Y-76.27
X148.45Y-78.81
X149.181Y-59.39
X150.803Y-143.3
X150.813Y-146.0
X151.537Y-59.39
X155.82Y-123.91
X155.82Y-126.45
X155.82Y-128.99
X155.82Y-131.53
X155.82Y-134.07
X155.82Y-136.61
X155.82Y-139.15
X155.85Y-99.91
X155.85Y-102.45
X155.85Y-104.99
X155.85Y-107.53
X155.85Y-110.07
X155.85Y-112.61
X155.85Y-115.15
X156.01Y-81.95
X156.07Y-63.57
X156.07Y-66.11
X156.07Y-68.65
X156.07Y-71.19
X156.07Y-73.73
X156.07Y-76.27
X156.07Y-78.81
X158.2Y-83.2
X158.325Y-115.255
X158.325Y-122.875
X158.375Y-97.7
X158.375Y-105.32
X159.157Y-59.39
X159.35Y-139.8
X159.35Y-147.42
X160.033Y-62.15
X160.033Y-69.77
X160.05Y-72.95
X160.05Y-80.57
X160.275Y-129.915
X160.275Y-137.535
X161.075Y-88.275
X161.075Y-90.815
X161.075Y-93.355
X161.075Y-96.95
X161.075Y-104.57
X161.435Y-59.39
X161.675Y-120.025
X161.675Y-127.645
X161.7Y-110.175
X161.7Y-117.795
X162.375Y-139.775
X162.375Y-147.395
X162.925Y-129.9
X162.925Y-137.52
X165.82Y-83.2
X167.884Y-63.57
X167.884Y-66.11
X167.884Y-68.65
X167.884Y-71.19
X167.884Y-73.73
X167.884Y-76.27
X167.884Y-78.81
X169.055Y-59.39
X174.79Y-131.98
X174.79Y-134.52
X174.79Y-137.06
X174.79Y-139.6
X174.79Y-142.14
X174.79Y-144.68
X174.79Y-147.22
X175.504Y-63.57
X175.504Y-66.11
X175.504Y-68.65
X175.504Y-71.19
X175.504Y-73.73
X175.504Y-76.27
X175.504Y-78.81
X178.1Y-78.85
X178.13Y-75.75
X182.41Y-131.98
X182.41Y-134.52
X182.41Y-137.06
X182.41Y-139.6
X182.41Y-142.14
X182.41Y-144.68
X182.41Y-147.22
X185.72Y-78.85
X185.75Y-75.75
T6
X54.95Y-52.282
X57.45Y-52.282
X59.95Y-52.282
X90.171Y-52.282
X92.671Y-52.282
X95.171Y-52.282
X125.45Y-52.282
X127.95Y-52.282
X130.45Y-52.282
X178.05Y-52.282
X180.55Y-52.282
X183.05Y-52.282
T7
X54.9Y-170.6
X54.9Y-175.6
X59.9Y-170.6
X59.9Y-175.6
X84.9Y-170.6
X84.9Y-175.6
X89.9Y-170.6
X89.9Y-175.6
X114.9Y-170.6
X114.9Y-175.6
X119.9Y-170.6
X119.9Y-175.6
T8
X53.745Y-62.886
X53.745Y-71.386
X53.745Y-79.886
X58.745Y-62.886
X58.745Y-71.386
X58.745Y-79.886
X68.2Y-53.8
X83.2Y-53.8
X91.4Y-59.6
X91.4Y-74.6
X103.7Y-61.7
X103.7Y-70.2
X103.7Y-78.7
X108.7Y-61.7
X108.7Y-70.2
X108.7Y-78.7
X137.5Y-54.8
X152.5Y-54.8
X156.2Y-54.8
X166.075Y-95.0
X171.2Y-54.8
X178.425Y-60.45
X193.425Y-60.45
X193.575Y-95.0
T9
X53.1Y-160.0
X58.1Y-160.0
X63.1Y-160.0
X69.3Y-160.0
X74.3Y-160.0
X195.5Y-69.4
X195.5Y-74.4
X195.5Y-112.174
X195.5Y-117.174
X195.5Y-126.1
X195.5Y-131.1
X195.5Y-136.1
X195.5Y-141.9
X195.5Y-146.9
T10
X111.9Y-140.177
X111.9Y-148.177
X121.9Y-141.177
X121.9Y-146.177
T2
X103.663Y-97.557G85X103.663Y-98.802
G05
X103.663Y-110.511G85X103.663Y-111.756
G05
X103.663Y-128.905G85X103.663Y-130.149
G05
X103.663Y-141.859G85X103.663Y-143.103
G05
M30
