%TF.GenerationSoftware,KiCad,Pcbnew,10.0.4*%
%TF.CreationDate,2026-07-08T16:36:36-04:00*%
%TF.ProjectId,Electronic Trombone,456c6563-7472-46f6-9e69-632054726f6d,rev?*%
%TF.SameCoordinates,Original*%
%TF.FileFunction,Soldermask,Bot*%
%TF.FilePolarity,Negative*%
%FSLAX46Y46*%
G04 Gerber Fmt 4.6, Leading zero omitted, Abs format (unit mm)*
G04 Created by KiCad (PCBNEW 10.0.4) date 2026-07-08 16:36:36*
%MOMM*%
%LPD*%
G01*
G04 APERTURE LIST*
G04 Aperture macros list*
%AMRoundRect*
0 Rectangle with rounded corners*
0 $1 Rounding radius*
0 $2 $3 $4 $5 $6 $7 $8 $9 X,Y pos of 4 corners*
0 Add a 4 corners polygon primitive as box body*
4,1,4,$2,$3,$4,$5,$6,$7,$8,$9,$2,$3,0*
0 Add four circle primitives for the rounded corners*
1,1,$1+$1,$2,$3*
1,1,$1+$1,$4,$5*
1,1,$1+$1,$6,$7*
1,1,$1+$1,$8,$9*
0 Add four rect primitives between the rounded corners*
20,1,$1+$1,$2,$3,$4,$5,0*
20,1,$1+$1,$4,$5,$6,$7,0*
20,1,$1+$1,$6,$7,$8,$9,0*
20,1,$1+$1,$8,$9,$2,$3,0*%
G04 Aperture macros list end*
%ADD10C,1.600000*%
%ADD11C,2.400000*%
%ADD12RoundRect,0.250000X-0.550000X-0.550000X0.550000X-0.550000X0.550000X0.550000X-0.550000X0.550000X0*%
%ADD13RoundRect,0.250000X-0.550000X0.550000X-0.550000X-0.550000X0.550000X-0.550000X0.550000X0.550000X0*%
%ADD14RoundRect,0.250000X0.550000X-0.550000X0.550000X0.550000X-0.550000X0.550000X-0.550000X-0.550000X0*%
%ADD15C,1.440000*%
%ADD16R,2.850000X2.850000*%
%ADD17C,2.850000*%
%ADD18C,2.154000*%
%ADD19C,1.500000*%
%ADD20C,1.574800*%
%ADD21R,2.400000X2.800000*%
%ADD22R,1.295400X1.295400*%
%ADD23C,1.295400*%
%ADD24RoundRect,0.250000X0.550000X0.550000X-0.550000X0.550000X-0.550000X-0.550000X0.550000X-0.550000X0*%
%ADD25R,1.300000X1.300000*%
%ADD26C,1.300000*%
%ADD27C,3.000000*%
%ADD28O,1.168400X2.413000*%
G04 APERTURE END LIST*
D10*
%TO.C,R52*%
X161700000Y-110175000D03*
X161700000Y-117795000D03*
%TD*%
D11*
%TO.C,C7*%
X193425000Y-60450000D03*
X178425000Y-60450000D03*
%TD*%
D10*
%TO.C,R32*%
X160033096Y-62150000D03*
X160033096Y-69770000D03*
%TD*%
D12*
%TO.C,U3*%
X122030000Y-93410000D03*
D10*
X122030000Y-95950000D03*
X122030000Y-98490000D03*
X122030000Y-101030000D03*
X122030000Y-103570000D03*
X122030000Y-106110000D03*
X122030000Y-108650000D03*
X129650000Y-108650000D03*
X129650000Y-106110000D03*
X129650000Y-103570000D03*
X129650000Y-101030000D03*
X129650000Y-98490000D03*
X129650000Y-95950000D03*
X129650000Y-93410000D03*
%TD*%
%TO.C,R53*%
X161675000Y-120025000D03*
X161675000Y-127645000D03*
%TD*%
D13*
%TO.C,D9*%
X116600000Y-88150000D03*
D10*
X116600000Y-95770000D03*
%TD*%
D14*
%TO.C,D10*%
X143150000Y-104560000D03*
D10*
X143150000Y-96940000D03*
%TD*%
D15*
%TO.C,RV13*%
X161075000Y-93355000D03*
X161075000Y-90815000D03*
X161075000Y-88275000D03*
%TD*%
D16*
%TO.C,SW4*%
X111900000Y-140177266D03*
D17*
X121900000Y-141177266D03*
X111900000Y-148177266D03*
X121900000Y-146177266D03*
%TD*%
D18*
%TO.C,J4*%
X74300000Y-160000000D03*
X69300000Y-160000000D03*
%TD*%
D14*
%TO.C,D18*%
X158325000Y-122875000D03*
D10*
X158325000Y-115255000D03*
%TD*%
%TO.C,R7*%
X132575000Y-111290000D03*
X132575000Y-118910000D03*
%TD*%
D14*
%TO.C,D17*%
X161075000Y-104570000D03*
D10*
X161075000Y-96950000D03*
%TD*%
D19*
%TO.C,C8*%
X147050000Y-88225000D03*
X147050000Y-93225000D03*
%TD*%
D11*
%TO.C,TH3*%
X53745000Y-71386242D03*
X58745000Y-71386242D03*
%TD*%
%TO.C,TH5*%
X108700000Y-61700000D03*
X103700000Y-61700000D03*
%TD*%
D10*
%TO.C,R11*%
X135650000Y-94370000D03*
X135650000Y-86750000D03*
%TD*%
D20*
%TO.C,SW2*%
X84900000Y-170600000D03*
X89900000Y-170600000D03*
X89900000Y-175599990D03*
X84900000Y-175599990D03*
%TD*%
D11*
%TO.C,TH1*%
X53745000Y-79886242D03*
X58745000Y-79886242D03*
%TD*%
%TO.C,C1*%
X68200000Y-53800000D03*
X83200000Y-53800000D03*
%TD*%
D18*
%TO.C,J6*%
X195500000Y-117174172D03*
X195500000Y-112174172D03*
%TD*%
D12*
%TO.C,U11*%
X174790000Y-131980000D03*
D10*
X174790000Y-134520000D03*
X174790000Y-137060000D03*
X174790000Y-139600000D03*
X174790000Y-142140000D03*
X174790000Y-144680000D03*
X174790000Y-147220000D03*
X182410000Y-147220000D03*
X182410000Y-144680000D03*
X182410000Y-142140000D03*
X182410000Y-139600000D03*
X182410000Y-137060000D03*
X182410000Y-134520000D03*
X182410000Y-131980000D03*
%TD*%
D11*
%TO.C,C3*%
X91400000Y-74600000D03*
X91400000Y-59600000D03*
%TD*%
D10*
%TO.C,R5*%
X185720000Y-78850000D03*
X178100000Y-78850000D03*
%TD*%
D21*
%TO.C,RV9*%
X62750000Y-55582097D03*
X52150000Y-55582097D03*
D19*
X59950000Y-52282097D03*
X57450000Y-52282097D03*
X54950000Y-52282097D03*
%TD*%
D10*
%TO.C,R21*%
X117600000Y-52700000D03*
X109980000Y-52700000D03*
%TD*%
D19*
%TO.C,C11*%
X138625000Y-128150000D03*
X143625000Y-128150000D03*
%TD*%
D10*
%TO.C,R56*%
X159350000Y-139800000D03*
X159350000Y-147420000D03*
%TD*%
D22*
%TO.C,U1*%
X174680000Y-109160000D03*
D23*
X174680000Y-111700000D03*
X174680000Y-114240000D03*
X174680000Y-116780000D03*
X174680000Y-119320000D03*
X174680000Y-121860000D03*
X174680000Y-124400000D03*
X174680000Y-126940000D03*
X182300000Y-126940000D03*
X182300000Y-124400000D03*
X182300000Y-121860000D03*
X182300000Y-119320000D03*
X182300000Y-116780000D03*
X182300000Y-114240000D03*
X182300000Y-111700000D03*
X182300000Y-109160000D03*
%TD*%
D12*
%TO.C,U10*%
X148200000Y-123910000D03*
D10*
X148200000Y-126450000D03*
X148200000Y-128990000D03*
X148200000Y-131530000D03*
X148200000Y-134070000D03*
X148200000Y-136610000D03*
X148200000Y-139150000D03*
X155820000Y-139150000D03*
X155820000Y-136610000D03*
X155820000Y-134070000D03*
X155820000Y-131530000D03*
X155820000Y-128990000D03*
X155820000Y-126450000D03*
X155820000Y-123910000D03*
%TD*%
D14*
%TO.C,D13*%
X145750000Y-103325000D03*
D10*
X145750000Y-95705000D03*
%TD*%
D24*
%TO.C,D5*%
X159156643Y-59390000D03*
D10*
X151536643Y-59390000D03*
%TD*%
%TO.C,R12*%
X138925000Y-118900000D03*
X138925000Y-111280000D03*
%TD*%
%TO.C,R43*%
X116950000Y-85920000D03*
X116950000Y-78300000D03*
%TD*%
D18*
%TO.C,J5*%
X195500000Y-146900000D03*
X195500000Y-141900000D03*
%TD*%
D19*
%TO.C,C2*%
X102300000Y-52800000D03*
X107300000Y-52800000D03*
%TD*%
D10*
%TO.C,R49*%
X126425000Y-78825000D03*
X126425000Y-86445000D03*
%TD*%
%TO.C,R61*%
X162375000Y-139775000D03*
X162375000Y-147395000D03*
%TD*%
D19*
%TO.C,C4*%
X164100000Y-69400000D03*
X164100000Y-64400000D03*
%TD*%
D12*
%TO.C,U8*%
X132205000Y-63560000D03*
D10*
X132205000Y-66100000D03*
X132205000Y-68640000D03*
X132205000Y-71180000D03*
X132205000Y-73720000D03*
X132205000Y-76260000D03*
X132205000Y-78800000D03*
X139825000Y-78800000D03*
X139825000Y-76260000D03*
X139825000Y-73720000D03*
X139825000Y-71180000D03*
X139825000Y-68640000D03*
X139825000Y-66100000D03*
X139825000Y-63560000D03*
%TD*%
D25*
%TO.C,Q5*%
X145240000Y-77600000D03*
D26*
X143970000Y-78870000D03*
X142700000Y-77600000D03*
%TD*%
D19*
%TO.C,C9*%
X154875000Y-148275000D03*
X154875000Y-143275000D03*
%TD*%
D10*
%TO.C,R67*%
X140050000Y-139545000D03*
X140050000Y-131925000D03*
%TD*%
D13*
%TO.C,D1*%
X68900000Y-60690000D03*
D10*
X68900000Y-68310000D03*
%TD*%
%TO.C,R50*%
X143025000Y-107105000D03*
X143025000Y-114725000D03*
%TD*%
%TO.C,R34*%
X148390000Y-81950000D03*
X156010000Y-81950000D03*
%TD*%
D12*
%TO.C,U2*%
X167884389Y-63570000D03*
D10*
X167884389Y-66110000D03*
X167884389Y-68650000D03*
X167884389Y-71190000D03*
X167884389Y-73730000D03*
X167884389Y-76270000D03*
X167884389Y-78810000D03*
X175504389Y-78810000D03*
X175504389Y-76270000D03*
X175504389Y-73730000D03*
X175504389Y-71190000D03*
X175504389Y-68650000D03*
X175504389Y-66110000D03*
X175504389Y-63570000D03*
%TD*%
D14*
%TO.C,D12*%
X160275000Y-137535000D03*
D10*
X160275000Y-129915000D03*
%TD*%
D11*
%TO.C,C6*%
X171200000Y-54800000D03*
X156200000Y-54800000D03*
%TD*%
D12*
%TO.C,U9*%
X148230000Y-99910000D03*
D10*
X148230000Y-102450000D03*
X148230000Y-104990000D03*
X148230000Y-107530000D03*
X148230000Y-110070000D03*
X148230000Y-112610000D03*
X148230000Y-115150000D03*
X155850000Y-115150000D03*
X155850000Y-112610000D03*
X155850000Y-110070000D03*
X155850000Y-107530000D03*
X155850000Y-104990000D03*
X155850000Y-102450000D03*
X155850000Y-99910000D03*
%TD*%
D24*
%TO.C,D19*%
X150812763Y-146000000D03*
D10*
X143192763Y-146000000D03*
%TD*%
D12*
%TO.C,D2*%
X88437689Y-77700000D03*
D10*
X96057689Y-77700000D03*
%TD*%
%TO.C,R51*%
X143025000Y-116880000D03*
X143025000Y-124500000D03*
%TD*%
D11*
%TO.C,TH4*%
X108700000Y-78700000D03*
X103700000Y-78700000D03*
%TD*%
D18*
%TO.C,J2*%
X195500000Y-136100000D03*
X195500000Y-131100000D03*
X195500000Y-126100000D03*
%TD*%
D11*
%TO.C,TH6*%
X108700000Y-70200000D03*
X103700000Y-70200000D03*
%TD*%
D20*
%TO.C,SW1*%
X114900000Y-170600000D03*
X119900000Y-170600000D03*
X119900000Y-175599990D03*
X114900000Y-175599990D03*
%TD*%
D21*
%TO.C,RV10*%
X97971073Y-55582097D03*
X87371073Y-55582097D03*
D19*
X95171073Y-52282097D03*
X92671073Y-52282097D03*
X90171073Y-52282097D03*
%TD*%
D13*
%TO.C,D15*%
X162925000Y-129900000D03*
D10*
X162925000Y-137520000D03*
%TD*%
%TO.C,R35*%
X158200000Y-83200000D03*
X165820000Y-83200000D03*
%TD*%
D12*
%TO.C,U6*%
X148450000Y-63570000D03*
D10*
X148450000Y-66110000D03*
X148450000Y-68650000D03*
X148450000Y-71190000D03*
X148450000Y-73730000D03*
X148450000Y-76270000D03*
X148450000Y-78810000D03*
X156070000Y-78810000D03*
X156070000Y-76270000D03*
X156070000Y-73730000D03*
X156070000Y-71190000D03*
X156070000Y-68650000D03*
X156070000Y-66110000D03*
X156070000Y-63570000D03*
%TD*%
%TO.C,R62*%
X143150000Y-139545000D03*
X143150000Y-131925000D03*
%TD*%
%TO.C,R41*%
X120750000Y-78300000D03*
X120750000Y-85920000D03*
%TD*%
D25*
%TO.C,Q4*%
X97200000Y-66800000D03*
D26*
X98470000Y-68070000D03*
X97200000Y-69340000D03*
%TD*%
D18*
%TO.C,J3*%
X63100000Y-160000000D03*
X58100000Y-160000000D03*
X53100000Y-160000000D03*
%TD*%
D24*
%TO.C,D3*%
X139210000Y-59400000D03*
D10*
X131590000Y-59400000D03*
%TD*%
D18*
%TO.C,J1*%
X195500000Y-74400000D03*
X195500000Y-69400000D03*
%TD*%
D25*
%TO.C,Q3*%
X97900000Y-74800000D03*
D26*
X96630000Y-73530000D03*
X97900000Y-72260000D03*
%TD*%
D22*
%TO.C,U4*%
X77080000Y-60400000D03*
D23*
X77080000Y-62940000D03*
X77080000Y-65480000D03*
X77080000Y-68020000D03*
X77080000Y-70560000D03*
X77080000Y-73100000D03*
X77080000Y-75640000D03*
X84700000Y-75640000D03*
X84700000Y-73100000D03*
X84700000Y-70560000D03*
X84700000Y-68020000D03*
X84700000Y-65480000D03*
X84700000Y-62940000D03*
X84700000Y-60400000D03*
%TD*%
D10*
%TO.C,R6*%
X185750000Y-75750000D03*
X178130000Y-75750000D03*
%TD*%
%TO.C,R9*%
X135750000Y-118910000D03*
X135750000Y-111290000D03*
%TD*%
D15*
%TO.C,RV12*%
X141800000Y-93305000D03*
X141800000Y-90765000D03*
X141800000Y-88225000D03*
%TD*%
D10*
%TO.C,R31*%
X160050000Y-72950000D03*
X160050000Y-80570000D03*
%TD*%
D27*
%TO.C,B1*%
X91369900Y-93429966D03*
X64496700Y-93683966D03*
X77882500Y-115934366D03*
D28*
X103663500Y-98179766D03*
X103663500Y-111133766D03*
%TD*%
D14*
%TO.C,D14*%
X145825000Y-119910000D03*
D10*
X145825000Y-112290000D03*
%TD*%
D11*
%TO.C,C10*%
X193575000Y-95000000D03*
X166075000Y-95000000D03*
%TD*%
D12*
%TO.C,D16*%
X143182763Y-143300000D03*
D10*
X150802763Y-143300000D03*
%TD*%
D25*
%TO.C,Q1*%
X65395000Y-63486242D03*
D26*
X64125000Y-62216242D03*
X65395000Y-60946242D03*
%TD*%
D10*
%TO.C,R48*%
X129475000Y-86445000D03*
X129475000Y-78825000D03*
%TD*%
D14*
%TO.C,D8*%
X114000000Y-95770000D03*
D10*
X114000000Y-88150000D03*
%TD*%
D25*
%TO.C,Q2*%
X64625000Y-66451242D03*
D26*
X65895000Y-67721242D03*
X64625000Y-68991242D03*
%TD*%
D14*
%TO.C,D11*%
X158375000Y-105320000D03*
D10*
X158375000Y-97700000D03*
%TD*%
D24*
%TO.C,D4*%
X149180964Y-59390000D03*
D10*
X141560964Y-59390000D03*
%TD*%
D20*
%TO.C,SW3*%
X54900000Y-170600000D03*
X59900000Y-170600000D03*
X59900000Y-175599990D03*
X54900000Y-175599990D03*
%TD*%
D25*
%TO.C,Q6*%
X145240000Y-82400000D03*
D26*
X143970000Y-83670000D03*
X142700000Y-82400000D03*
%TD*%
D24*
%TO.C,U5*%
X73100000Y-87400000D03*
D10*
X73100000Y-84860000D03*
X73100000Y-82320000D03*
X73100000Y-79780000D03*
X73100000Y-77240000D03*
X73100000Y-74700000D03*
X73100000Y-72160000D03*
X65480000Y-72160000D03*
X65480000Y-74700000D03*
X65480000Y-77240000D03*
X65480000Y-79780000D03*
X65480000Y-82320000D03*
X65480000Y-84860000D03*
X65480000Y-87400000D03*
%TD*%
D14*
%TO.C,D7*%
X114000000Y-85900000D03*
D10*
X114000000Y-78280000D03*
%TD*%
D12*
%TO.C,U7*%
X115485000Y-59380000D03*
D10*
X115485000Y-61920000D03*
X115485000Y-64460000D03*
X115485000Y-67000000D03*
X115485000Y-69540000D03*
X115485000Y-72080000D03*
X115485000Y-74620000D03*
X123105000Y-74620000D03*
X123105000Y-72080000D03*
X123105000Y-69540000D03*
X123105000Y-67000000D03*
X123105000Y-64460000D03*
X123105000Y-61920000D03*
X123105000Y-59380000D03*
%TD*%
D21*
%TO.C,RV8*%
X185850000Y-55582097D03*
X175250000Y-55582097D03*
D19*
X183050000Y-52282097D03*
X180550000Y-52282097D03*
X178050000Y-52282097D03*
%TD*%
D11*
%TO.C,C5*%
X152500000Y-54800000D03*
X137500000Y-54800000D03*
%TD*%
D21*
%TO.C,RV11*%
X133250000Y-55582097D03*
X122650000Y-55582097D03*
D19*
X130450000Y-52282097D03*
X127950000Y-52282097D03*
X125450000Y-52282097D03*
%TD*%
D27*
%TO.C,B2*%
X91369900Y-124777066D03*
X64496700Y-125031066D03*
X77882500Y-147281466D03*
D28*
X103663500Y-129526866D03*
X103663500Y-142480866D03*
%TD*%
D11*
%TO.C,TH2*%
X53745000Y-62886242D03*
X58745000Y-62886242D03*
%TD*%
D24*
%TO.C,D6*%
X169054618Y-59390000D03*
D10*
X161434618Y-59390000D03*
%TD*%
M02*
